<?xml version="1.0" standalone="no"?>
<!DOCTYPE svg PUBLIC "-//W3C//DTD SVG 20010904//EN"
 "http://www.w3.org/TR/2001/REC-SVG-20010904/DTD/svg10.dtd">
<svg version="1.0" xmlns="http://www.w3.org/2000/svg"
 width="700.000000pt" height="700.000000pt" viewBox="0 0 700.000000 700.000000"
 preserveAspectRatio="xMidYMid meet">
<metadata>
Created by potrace 1.11, written by Peter Selinger 2001-2013
</metadata>
<g transform="translate(0.000000,700.000000) scale(0.100000,-0.100000)"
fill="#000000" stroke="none">
<path d="M4146 6781 c-30 -41 -69 -78 -121 -113 -289 -192 -523 -542 -686
-1023 l-48 -140 -108 -17 c-281 -46 -541 -133 -808 -271 l-124 -64 -90 151
c-165 278 -304 467 -449 613 -201 204 -319 262 -807 396 -214 59 -362 93 -370
85 -6 -5 26 -161 84 -418 21 -96 49 -227 60 -292 58 -326 217 -579 629 -999
l193 -197 -75 -103 c-288 -402 -454 -883 -486 -1408 -10 -159 -8 -201 10 -201
4 0 13 -13 19 -30 5 -16 17 -30 25 -30 29 0 163 53 286 113 114 56 133 69 215
151 50 50 106 115 125 145 l35 53 62 -193 c34 -107 77 -250 95 -318 44 -171
76 -214 134 -177 49 33 97 134 124 264 14 71 16 75 50 86 24 7 41 22 54 47 19
35 19 43 7 192 -8 85 -11 168 -7 184 4 15 20 46 35 68 27 38 28 43 19 100 -17
112 -23 212 -18 269 l5 58 38 -66 c22 -36 42 -66 45 -66 4 0 20 19 36 42 l30
41 -24 41 c-118 209 -229 331 -825 902 -373 358 -570 610 -668 854 -14 36 -40
135 -57 220 -18 85 -53 239 -79 343 -26 103 -42 186 -36 184 5 -2 87 -28 180
-56 369 -113 434 -136 529 -185 87 -44 116 -66 224 -171 210 -203 338 -387
668 -960 208 -363 330 -564 427 -701 l72 -104 74 -25 c41 -14 76 -24 77 -22 2
2 -15 30 -36 62 -22 33 -35 62 -30 63 24 8 253 -20 311 -37 50 -16 74 -18 109
-11 67 13 190 11 233 -4 61 -22 116 -66 159 -127 47 -66 94 -95 179 -113 l62
-12 62 -165 c78 -205 140 -342 214 -478 66 -121 137 -239 157 -262 12 -13 8
-18 -30 -36 -134 -65 -252 -167 -327 -280 -54 -83 -86 -161 -129 -318 -18 -65
-58 -166 -96 -245 l-65 -134 -22 39 c-22 38 -25 40 -82 46 -33 3 -61 5 -63 4
-1 -1 22 -54 51 -116 l54 -115 -18 -52 c-22 -64 -55 -215 -64 -295 l-7 -58
-30 28 c-50 47 -152 173 -208 257 -67 101 -127 221 -179 360 -23 60 -64 153
-92 205 -51 97 -196 321 -207 321 -15 0 -92 -36 -92 -42 0 -4 20 -38 44 -75
24 -37 69 -119 100 -181 l57 -114 -11 -91 c-5 -51 -15 -204 -20 -342 -5 -137
-14 -317 -20 -400 -5 -82 -17 -287 -25 -455 -12 -244 -20 -330 -40 -429 -14
-68 -25 -129 -25 -136 0 -19 175 -68 285 -80 28 -4 93 -13 145 -22 123 -20
391 -30 554 -21 522 30 1051 231 1485 565 117 90 380 356 467 473 288 384 457
788 531 1267 24 158 24 576 0 733 -68 433 -211 802 -445 1145 -105 155 -178
242 -317 381 -256 257 -549 451 -886 588 -146 59 -367 126 -489 146 -41 7 -76
14 -78 15 -1 1 13 38 32 82 142 332 201 631 177 896 -9 104 -55 363 -66 375
-2 2 -24 -24 -49 -57z m-51 -278 c3 -38 10 -91 15 -119 30 -175 20 -333 -31
-506 -43 -143 -92 -249 -254 -548 -134 -245 -245 -472 -245 -500 0 -6 -11 -3
-25 6 -28 18 -170 43 -249 44 -45 0 -48 2 -43 23 3 12 22 110 42 217 62 335
116 529 208 738 77 174 216 389 331 511 46 49 225 201 237 201 4 0 10 -30 14
-67z m567 -3926 c66 -67 134 -140 151 -162 18 -22 94 -103 171 -180 110 -111
145 -153 170 -205 l31 -65 0 -190 c0 -210 -13 -287 -63 -380 -26 -48 -100
-115 -126 -115 -27 0 -66 41 -66 68 0 15 14 90 30 167 26 118 56 362 46 372
-6 7 -106 -71 -106 -83 0 -8 -23 -85 -52 -172 -48 -144 -52 -165 -53 -252 0
-81 3 -100 22 -130 l22 -35 -57 -37 c-70 -46 -142 -78 -252 -113 -154 -49
-234 -21 -376 127 -97 103 -222 286 -325 477 -84 158 -86 137 19 321 83 147
95 175 136 329 42 154 71 223 131 306 54 76 120 133 221 190 l77 44 64 -81
c36 -44 119 -135 185 -201z m-890 -1101 c40 -111 69 -160 181 -301 31 -38 55
-71 53 -72 -11 -11 -205 88 -285 144 l-63 46 6 66 c3 36 14 115 23 175 15 106
16 108 31 81 8 -16 32 -78 54 -139z"/>
<path d="M704 6203 c3 -10 12 -45 21 -78 9 -33 66 -152 125 -265 60 -113 136
-267 169 -343 114 -257 75 -205 460 -622 307 -332 537 -584 710 -778 l115
-128 22 43 c14 27 19 49 14 58 -31 57 -458 548 -720 830 -95 102 -220 241
-277 310 -98 116 -113 141 -214 342 -60 120 -136 263 -169 319 l-60 101 37
-22 c21 -12 101 -59 178 -103 144 -82 296 -182 374 -246 33 -26 111 -135 286
-401 133 -201 279 -426 325 -500 46 -74 114 -182 151 -240 36 -58 78 -128 92
-156 37 -73 49 -81 86 -53 17 13 31 28 31 34 0 20 -120 246 -211 398 -103 171
-336 525 -517 785 -126 182 -170 228 -327 342 -140 101 -658 390 -699 390 -4
0 -5 -8 -2 -17z"/>
<path d="M3489 3777 c-97 -36 -174 -112 -234 -231 -81 -161 -48 -334 91 -474
156 -156 368 -185 500 -69 80 70 98 132 83 287 -23 246 -101 414 -221 476 -43
23 -171 29 -219 11z m156 -121 c19 -8 47 -28 61 -43 25 -27 69 -102 62 -107
-2 -2 -34 -8 -72 -14 -125 -20 -233 -95 -297 -206 l-28 -50 -20 44 c-37 86
-37 124 0 198 75 149 193 220 294 178z"/>
</g>
</svg>
